<mxfile host="app.diagrams.net" modified="2023-03-23T08:45:01.067Z" agent="5.0 (Windows NT 10.0; Win64; x64) AppleWebKit/537.36 (KHTML, like Gecko) Chrome/111.0.0.0 Safari/537.36" etag="ab1QyWumf7UtdBCykF19" version="21.0.10" type="github">
  <diagram name="Strona-1" id="Tn8MfOmm69UkGLcNvQUx">
    <mxGraphModel dx="1434" dy="796" grid="1" gridSize="10" guides="1" tooltips="1" connect="1" arrows="1" fold="1" page="1" pageScale="1" pageWidth="827" pageHeight="1169" math="0" shadow="0">
      <root>
        <mxCell id="0" />
        <mxCell id="1" parent="0" />
        <mxCell id="GOE3ptv5ZLQtFwCsPUDU-3" style="edgeStyle=orthogonalEdgeStyle;rounded=0;orthogonalLoop=1;jettySize=auto;html=1;entryX=0.5;entryY=0;entryDx=0;entryDy=0;" edge="1" parent="1" source="GOE3ptv5ZLQtFwCsPUDU-1" target="GOE3ptv5ZLQtFwCsPUDU-2">
          <mxGeometry relative="1" as="geometry" />
        </mxCell>
        <mxCell id="GOE3ptv5ZLQtFwCsPUDU-1" value="Start" style="ellipse;whiteSpace=wrap;html=1;" vertex="1" parent="1">
          <mxGeometry x="340" y="40" width="120" height="80" as="geometry" />
        </mxCell>
        <mxCell id="GOE3ptv5ZLQtFwCsPUDU-5" style="edgeStyle=orthogonalEdgeStyle;rounded=0;orthogonalLoop=1;jettySize=auto;html=1;entryX=0.5;entryY=0;entryDx=0;entryDy=0;" edge="1" parent="1" source="GOE3ptv5ZLQtFwCsPUDU-2" target="GOE3ptv5ZLQtFwCsPUDU-4">
          <mxGeometry relative="1" as="geometry" />
        </mxCell>
        <mxCell id="GOE3ptv5ZLQtFwCsPUDU-2" value="Wynik=0&lt;br&gt;i=1" style="rounded=0;whiteSpace=wrap;html=1;" vertex="1" parent="1">
          <mxGeometry x="340" y="170" width="120" height="60" as="geometry" />
        </mxCell>
        <mxCell id="GOE3ptv5ZLQtFwCsPUDU-9" style="edgeStyle=orthogonalEdgeStyle;rounded=0;orthogonalLoop=1;jettySize=auto;html=1;entryX=0;entryY=0.5;entryDx=0;entryDy=0;" edge="1" parent="1" source="GOE3ptv5ZLQtFwCsPUDU-4" target="GOE3ptv5ZLQtFwCsPUDU-8">
          <mxGeometry relative="1" as="geometry" />
        </mxCell>
        <mxCell id="GOE3ptv5ZLQtFwCsPUDU-11" style="edgeStyle=orthogonalEdgeStyle;rounded=0;orthogonalLoop=1;jettySize=auto;html=1;entryX=0.5;entryY=0;entryDx=0;entryDy=0;" edge="1" parent="1" source="GOE3ptv5ZLQtFwCsPUDU-4" target="GOE3ptv5ZLQtFwCsPUDU-10">
          <mxGeometry relative="1" as="geometry" />
        </mxCell>
        <mxCell id="GOE3ptv5ZLQtFwCsPUDU-4" value="i&amp;lt;=n?" style="rhombus;whiteSpace=wrap;html=1;" vertex="1" parent="1">
          <mxGeometry x="360" y="280" width="80" height="80" as="geometry" />
        </mxCell>
        <mxCell id="GOE3ptv5ZLQtFwCsPUDU-8" value="Stop" style="ellipse;whiteSpace=wrap;html=1;" vertex="1" parent="1">
          <mxGeometry x="540" y="280" width="120" height="80" as="geometry" />
        </mxCell>
        <mxCell id="GOE3ptv5ZLQtFwCsPUDU-13" style="edgeStyle=orthogonalEdgeStyle;rounded=0;orthogonalLoop=1;jettySize=auto;html=1;entryX=0.5;entryY=0;entryDx=0;entryDy=0;" edge="1" parent="1" source="GOE3ptv5ZLQtFwCsPUDU-10" target="GOE3ptv5ZLQtFwCsPUDU-12">
          <mxGeometry relative="1" as="geometry" />
        </mxCell>
        <mxCell id="GOE3ptv5ZLQtFwCsPUDU-20" style="edgeStyle=orthogonalEdgeStyle;rounded=0;orthogonalLoop=1;jettySize=auto;html=1;entryX=1;entryY=0.5;entryDx=0;entryDy=0;" edge="1" parent="1" source="GOE3ptv5ZLQtFwCsPUDU-10" target="GOE3ptv5ZLQtFwCsPUDU-18">
          <mxGeometry relative="1" as="geometry">
            <mxPoint x="600" y="720" as="targetPoint" />
            <Array as="points">
              <mxPoint x="630" y="450" />
              <mxPoint x="630" y="690" />
            </Array>
          </mxGeometry>
        </mxCell>
        <mxCell id="GOE3ptv5ZLQtFwCsPUDU-10" value="a[i]=x?" style="rhombus;whiteSpace=wrap;html=1;" vertex="1" parent="1">
          <mxGeometry x="360" y="410" width="80" height="80" as="geometry" />
        </mxCell>
        <mxCell id="GOE3ptv5ZLQtFwCsPUDU-19" style="edgeStyle=orthogonalEdgeStyle;rounded=0;orthogonalLoop=1;jettySize=auto;html=1;entryX=0.5;entryY=0;entryDx=0;entryDy=0;" edge="1" parent="1" source="GOE3ptv5ZLQtFwCsPUDU-12" target="GOE3ptv5ZLQtFwCsPUDU-18">
          <mxGeometry relative="1" as="geometry" />
        </mxCell>
        <mxCell id="GOE3ptv5ZLQtFwCsPUDU-12" value="wynik=wynik+1" style="rounded=0;whiteSpace=wrap;html=1;" vertex="1" parent="1">
          <mxGeometry x="340" y="540" width="120" height="60" as="geometry" />
        </mxCell>
        <mxCell id="GOE3ptv5ZLQtFwCsPUDU-14" value="tak" style="text;html=1;align=center;verticalAlign=middle;resizable=0;points=[];autosize=1;strokeColor=none;fillColor=none;" vertex="1" parent="1">
          <mxGeometry x="400" y="485" width="40" height="30" as="geometry" />
        </mxCell>
        <mxCell id="GOE3ptv5ZLQtFwCsPUDU-15" value="tak" style="text;html=1;align=center;verticalAlign=middle;resizable=0;points=[];autosize=1;strokeColor=none;fillColor=none;" vertex="1" parent="1">
          <mxGeometry x="410" y="365" width="40" height="30" as="geometry" />
        </mxCell>
        <mxCell id="GOE3ptv5ZLQtFwCsPUDU-23" style="edgeStyle=orthogonalEdgeStyle;rounded=0;orthogonalLoop=1;jettySize=auto;html=1;entryX=0;entryY=0.5;entryDx=0;entryDy=0;" edge="1" parent="1" source="GOE3ptv5ZLQtFwCsPUDU-18" target="GOE3ptv5ZLQtFwCsPUDU-4">
          <mxGeometry relative="1" as="geometry">
            <mxPoint x="210" y="320" as="targetPoint" />
            <Array as="points">
              <mxPoint x="200" y="690" />
              <mxPoint x="200" y="320" />
            </Array>
          </mxGeometry>
        </mxCell>
        <mxCell id="GOE3ptv5ZLQtFwCsPUDU-18" value="i=i+1" style="rounded=0;whiteSpace=wrap;html=1;" vertex="1" parent="1">
          <mxGeometry x="340" y="660" width="120" height="60" as="geometry" />
        </mxCell>
        <mxCell id="GOE3ptv5ZLQtFwCsPUDU-22" value="NIE" style="text;html=1;align=center;verticalAlign=middle;resizable=0;points=[];autosize=1;strokeColor=none;fillColor=none;" vertex="1" parent="1">
          <mxGeometry x="630" y="545" width="40" height="30" as="geometry" />
        </mxCell>
      </root>
    </mxGraphModel>
  </diagram>
</mxfile>
